<svg width="536" height="536" viewBox="0 0 536 536" fill="none" xmlns="http://www.w3.org/2000/svg">
<path fill-rule="evenodd" clip-rule="evenodd" d="M107.2 402C107.2 387.206 95.1936 375.2 80.4 375.2H53.6V428.8H80.4C95.1936 428.8 107.2 416.794 107.2 402ZM160.693 397.685C163.105 444.049 126.228 482.4 80.4 482.4H53.6V509.2C53.6 523.994 41.5936 536 26.8 536C12.0064 536 0 523.994 0 509.2V348.4C0 333.606 12.0064 321.6 26.8 321.6H75.8436C119.394 321.6 158.415 354.189 160.693 397.685ZM321.6 321.6C306.806 321.6 294.8 333.606 294.8 348.4V375.2C294.8 389.994 282.794 402 268 402C253.206 402 241.2 389.994 241.2 375.2V348.4C241.2 333.606 229.194 321.6 214.4 321.6C199.606 321.6 187.6 333.606 187.6 348.4V402C187.6 431.614 211.586 455.6 241.2 455.6V509.2C241.2 523.994 253.206 536 268 536C282.794 536 294.8 523.994 294.8 509.2V455.6C324.414 455.6 348.4 431.614 348.4 402V348.4C348.4 333.606 336.394 321.6 321.6 321.6ZM536 160.398V482.4C536 512.014 512.014 536 482.4 536H481.837H428.8C414.006 536 402 523.994 402 509.2C402 494.406 414.006 482.4 428.8 482.4H455.6C470.394 482.4 482.4 470.394 482.4 455.6V214.4H375.2C345.586 214.4 321.6 190.414 321.6 160.8V53.6H80.4C65.6064 53.6 53.6 65.6064 53.6 80.4V241.2C53.6 255.994 41.5936 268 26.8 268C12.0064 268 0 255.994 0 241.2V53.6C0 23.986 23.986 0 53.6 0H364.185C370.912 0 377.397 2.51959 382.329 7.10239L527.371 140.7C532.865 145.765 536 152.92 536 160.398Z" fill="white"/>
</svg>
