<svg width="407" height="407" viewBox="0 0 407 407" fill="none" xmlns="http://www.w3.org/2000/svg">
<path d="M336.104 153.149C337.448 151.819 339.293 150.991 341.329 150.991C345.414 150.991 348.725 154.303 348.725 158.389C348.725 162.474 345.414 165.786 341.329 165.786C337.244 165.786 333.933 162.474 333.933 158.389C333.933 156.353 334.761 154.507 336.091 153.163L336.104 153.149ZM194.679 39.3359C196.891 37.0148 199.999 35.5624 203.459 35.5624C210.15 35.5624 215.565 40.9783 215.565 47.67C215.565 54.3617 210.15 59.7775 203.459 59.7775C197.854 59.7775 193.145 55.9769 191.761 50.8054L191.747 50.724C191.503 49.801 191.354 48.7558 191.354 47.67C191.354 44.4395 192.616 41.5076 194.679 39.3359ZM352.417 202.149C352.417 205.855 352.281 209.547 352.01 213.198H336.742C335.222 213.198 334.598 214.189 334.598 215.709V222.713C334.598 239.219 325.288 242.802 317.132 243.711C309.369 244.594 300.765 240.467 299.706 235.717C298.498 218.546 289.216 203.778 275.658 195.078L275.454 194.956C291.821 186.906 303.438 171.392 305.935 152.973L305.962 152.688C305.298 136.006 296.191 121.605 282.824 113.542L282.606 113.42C273.554 107.475 262.63 103.66 250.863 102.927L250.673 102.914H92.8405C114.134 79.174 142.755 62.37 175.123 56.0855L176.059 55.9362L194.665 75.4548C196.674 77.5587 199.497 78.8753 202.631 78.8753C205.59 78.8753 208.264 77.708 210.245 75.8077L231.05 55.8955C274.925 64.3382 311.296 91.0914 332.494 127.713L332.874 128.432L318.624 160.628C318.027 161.945 317.688 163.479 317.688 165.094C317.688 169.56 320.334 173.414 324.161 175.165L324.229 175.193L351.67 187.382C352.145 192.254 352.39 197.168 352.39 202.163L352.417 202.149ZM169.979 176.944V148.941H220.179C222.771 148.941 238.487 151.941 238.487 163.696C238.487 173.455 226.435 176.957 216.528 176.957L169.979 176.944ZM55.764 186.16L81.7936 174.582C85.6885 172.817 88.3485 168.976 88.3485 164.51C88.3485 162.881 87.9956 161.348 87.3713 159.963L87.3985 160.031L82.0378 147.91H103.127V242.938H60.5954C56.9854 230.735 54.9226 216.727 54.9226 202.217C54.9226 196.557 55.2347 190.965 55.859 185.468L55.7912 186.146L55.764 186.16ZM69.9323 152.552C69.9323 148.548 66.6888 145.304 62.6853 145.304C58.6818 145.304 55.4383 148.548 55.4383 152.552C55.4383 156.556 58.6818 159.8 62.6853 159.8C66.6888 159.8 69.9323 156.556 69.9323 152.552ZM116.047 339.594C115.219 339.798 114.283 339.906 113.306 339.906C106.615 339.906 101.2 334.491 101.2 327.799C101.2 321.107 106.615 315.691 113.306 315.691C119.996 315.691 125.411 321.107 125.411 327.799C125.411 329.102 125.208 330.364 124.828 331.545L124.855 331.464C123.539 335.536 120.241 338.603 116.129 339.594H116.047ZM284.181 300.923C283.489 300.761 282.688 300.679 281.86 300.679C276.594 300.679 272.184 304.385 271.112 309.339L271.098 309.407L265.032 337.708C246.996 346.055 225.892 350.928 203.649 350.928C180.918 350.928 159.367 345.838 140.082 336.73L140.991 337.11L134.925 308.81C133.839 303.801 129.442 300.095 124.176 300.095C123.349 300.095 122.548 300.19 121.774 300.353L121.842 300.34L96.8576 305.701C92.352 301.073 88.1177 296.105 84.2228 290.866L83.9378 290.472H205.495C206.866 290.472 207.789 290.228 207.789 288.979V245.965C207.789 244.716 206.879 244.471 205.495 244.471H169.938V217.202H208.399C220.355 217.325 230.208 226.107 232.027 237.563L232.04 237.698C233.574 243.684 236.912 263.216 239.219 269.46C241.499 276.464 250.809 290.458 260.73 290.458H321.298C322.085 290.445 322.845 290.363 323.578 290.228L323.496 290.241C319.072 296.213 314.567 301.48 309.708 306.421L309.722 306.407L284.181 300.923ZM289.989 340.178C305.325 340.178 317.756 327.731 317.756 312.393C317.756 297.055 305.325 284.608 289.976 284.608C274.627 284.608 262.195 297.041 262.195 312.393C262.195 327.731 274.627 340.164 289.962 340.178H289.989ZM404.313 198.457L387.227 187.884C387.082 186.219 386.924 184.558 386.752 182.902L401.436 169.22C402.576 168.148 403.281 166.614 403.281 164.931C403.281 162.434 401.721 160.289 399.522 159.42L399.482 159.407L380.713 152.389C380.251 150.769 379.758 149.154 379.233 147.543L390.945 131.282C391.637 130.332 392.058 129.138 392.058 127.848C392.058 124.93 389.941 122.514 387.159 122.052H387.118L367.331 118.836C366.562 117.342 365.766 115.858 364.943 114.383L373.248 96.1272C373.588 95.4078 373.778 94.5798 373.778 93.684C373.778 92.4624 373.411 91.3358 372.76 90.3992L372.773 90.4128C371.701 88.8247 369.896 87.7931 367.861 87.7931C367.793 87.7931 367.725 87.7931 367.657 87.7931H367.671L347.585 88.4989C346.554 87.1959 345.495 85.9154 344.41 84.6576L349.024 65.0983C349.119 64.6911 349.173 64.2296 349.173 63.7545C349.173 60.4969 346.54 57.8636 343.283 57.8636C342.808 57.8636 342.347 57.9179 341.899 58.0265L341.94 58.0129L322.384 62.6279C321.108 61.5511 319.819 60.4924 318.516 59.4517L319.222 39.363C319.222 39.2816 319.222 39.1866 319.222 39.078C319.222 35.8475 316.602 33.2414 313.386 33.2414C312.49 33.2414 311.635 33.445 310.875 33.8115L310.916 33.7979L292.663 42.132C291.183 41.3312 289.704 40.5168 288.211 39.7431L284.981 19.9394C284.493 17.1297 282.064 15.0258 279.159 15.0258C277.884 15.0258 276.689 15.433 275.726 16.1253L275.739 16.1117L259.468 27.8256C257.866 27.3098 256.251 26.8257 254.623 26.3732L247.606 7.60113C246.738 5.36151 244.594 3.80057 242.083 3.80057C240.4 3.80057 238.88 4.50639 237.794 5.64656L224.115 20.3466C222.459 20.1566 220.799 19.9982 219.134 19.8715L208.562 2.78256C207.504 1.09945 205.671 0 203.568 0C201.464 0 199.619 1.09945 198.587 2.76898L198.574 2.79613L188.002 19.8851C186.337 20.0299 184.677 20.1882 183.021 20.3602L169.314 5.66013C168.242 4.50639 166.709 3.78699 165.012 3.78699C162.501 3.78699 160.357 5.36151 159.516 7.57399L159.502 7.61471L152.486 26.3868C150.857 26.8483 149.256 27.3505 147.641 27.8392L131.383 16.1253C130.433 15.4466 129.252 15.0394 127.963 15.0394C125.045 15.0394 122.629 17.1433 122.141 19.9258V19.9666L118.911 39.7702C117.418 40.5394 115.934 41.3357 114.459 42.1591L96.2062 33.825C95.4869 33.4857 94.6455 33.2957 93.7634 33.2957C90.5199 33.2957 87.887 35.9289 87.887 39.173C87.887 39.2544 87.887 39.3359 87.887 39.4037L88.5927 59.4789C87.2899 60.5105 86.0006 61.5692 84.7249 62.6551L65.1689 58.0265C64.7617 57.9315 64.3003 57.8772 63.8253 57.8772C60.5682 57.8772 57.9354 60.5105 57.9354 63.7681C57.9354 64.2431 57.9897 64.7047 58.0983 65.1526L58.0847 65.1119L62.6853 84.6712C61.6268 85.9471 60.5546 87.2366 59.5232 88.5125L39.4379 87.8067C39.37 87.8067 39.2886 87.8067 39.2072 87.8067C35.9637 87.8067 33.3308 90.4399 33.3308 93.684C33.3308 94.5662 33.5208 95.4078 33.8737 96.1679L33.8601 96.1272L42.1928 114.383C41.3695 115.849 40.5733 117.333 39.8043 118.836L20.0311 122.052C17.2218 122.541 15.1183 124.957 15.1183 127.875C15.1183 129.151 15.5254 130.346 16.2176 131.31L16.204 131.296L27.9159 147.557C27.4093 149.168 26.9162 150.783 26.4367 152.403L7.66772 159.42C5.42848 160.289 3.86779 162.434 3.86779 164.945C3.86779 166.628 4.57349 168.148 5.6999 169.234L20.3839 182.916C20.1939 184.572 20.0356 186.232 19.9089 187.897L2.82281 198.471C1.12641 199.516 0 201.362 0 203.466C0 205.57 1.11284 207.43 2.79567 208.448L2.82281 208.461L19.9089 219.035C20.0446 220.704 20.2211 222.36 20.3839 224.016L5.6999 237.725C4.54635 238.798 3.82708 240.332 3.82708 242.028C3.82708 244.539 5.40133 246.684 7.61344 247.525L7.65415 247.539L26.4231 254.557C26.8845 256.185 27.3867 257.801 27.9024 259.402L16.1904 275.663C15.4847 276.613 15.064 277.821 15.064 279.111C15.064 282.029 17.2083 284.459 20.0039 284.893H20.0311L39.8043 288.11C40.5779 289.603 41.365 291.083 42.1928 292.562L33.8601 310.819C33.5208 311.538 33.3308 312.379 33.3308 313.262C33.3308 316.506 35.9637 319.139 39.2072 319.139C39.2886 319.139 39.37 319.139 39.4379 319.139H39.4243L59.4961 318.433C60.5411 319.736 61.5861 321.026 62.6718 322.302L58.0711 341.875C57.9761 342.282 57.9218 342.743 57.9218 343.218C57.9218 346.462 60.5547 349.096 63.7982 349.096C64.2867 349.096 64.7482 349.041 65.196 348.933L65.1553 348.946L84.7114 344.345C85.9871 345.431 87.2763 346.476 88.5792 347.508L87.8735 367.596C87.8735 367.678 87.8735 367.759 87.8735 367.854C87.8735 371.085 90.4927 373.691 93.7091 373.691C94.6048 373.691 95.4598 373.487 96.2197 373.121L96.179 373.134L114.432 364.827C115.912 365.655 117.391 366.443 118.884 367.216L122.114 386.993C122.602 389.802 125.018 391.92 127.936 391.92C129.211 391.92 130.392 391.513 131.369 390.82L131.356 390.834L147.614 379.12C149.224 379.636 150.839 380.129 152.459 380.6L159.475 399.372C160.316 401.638 162.461 403.213 164.971 403.213C166.668 403.213 168.201 402.494 169.273 401.326L182.98 386.64C184.622 386.83 186.292 386.979 187.961 387.142L198.533 404.231C199.592 405.901 201.437 407 203.527 407C205.617 407 207.463 405.901 208.508 404.245L208.521 404.217L219.093 387.128C220.763 386.979 222.418 386.816 224.074 386.626L237.754 401.313C238.826 402.453 240.359 403.159 242.042 403.159C244.539 403.159 246.684 401.598 247.552 399.399L247.566 399.358L254.582 380.586C256.201 380.125 257.816 379.631 259.427 379.107L275.685 390.82C276.635 391.526 277.843 391.947 279.132 391.947C282.05 391.947 284.479 389.802 284.914 387.006V386.979L288.144 367.203C289.636 366.429 291.116 365.628 292.595 364.814L310.848 373.121C311.554 373.446 312.395 373.636 313.277 373.636C316.534 373.636 319.167 371.003 319.167 367.746C319.167 367.678 319.167 367.623 319.167 367.556L318.462 347.48C319.764 346.458 321.045 345.404 322.302 344.318L341.858 348.919C342.265 349.014 342.727 349.069 343.188 349.069C346.445 349.069 349.078 346.435 349.078 343.178C349.078 342.703 349.024 342.255 348.915 341.82L348.929 341.861L344.328 322.288C345.387 321.012 346.459 319.736 347.49 318.42L367.576 319.125C367.657 319.125 367.752 319.125 367.847 319.125C371.077 319.125 373.683 316.506 373.683 313.289C373.683 312.393 373.479 311.538 373.113 310.778L373.126 310.819L364.821 292.562C365.621 291.083 366.436 289.603 367.209 288.11L386.983 284.893C389.792 284.405 391.895 281.975 391.895 279.07C391.895 277.794 391.488 276.6 390.796 275.636L390.81 275.65L379.098 259.389L380.577 254.543L399.346 247.525C401.599 246.67 403.173 244.526 403.173 242.015C403.173 240.318 402.454 238.784 401.3 237.712L386.616 224.003C386.793 222.36 386.955 220.691 387.091 219.021L404.177 208.448C405.874 207.402 407 205.556 407 203.452C407 201.349 405.887 199.503 404.204 198.471L404.177 198.457H404.313Z" fill="white"/>
</svg>
