<svg width="538" height="537" viewBox="0 0 538 537" fill="none" xmlns="http://www.w3.org/2000/svg">
<path d="M520.325 89.9881L282.632 515.023C277.723 523.797 265.117 523.85 260.134 515.118L17.7283 90.0279C12.3022 80.5106 20.4377 68.9839 31.2211 70.9101L269.172 113.443C270.689 113.715 272.243 113.712 273.76 113.436L506.733 70.9716C517.48 69.0128 525.657 80.4528 520.325 89.9881Z" stroke="white" stroke-width="30"/>
<path d="M382.518 15.1249L206.618 49.5912C205.212 49.8662 203.938 50.6008 202.995 51.6793C202.053 52.7578 201.495 54.1191 201.411 55.549L190.591 238.295C190.338 242.599 194.29 245.94 198.49 244.971L247.464 233.67C252.047 232.612 256.187 236.649 255.245 241.256L240.696 312.505C239.715 317.298 244.217 321.4 248.9 319.979L279.148 310.787C283.838 309.363 288.344 313.476 287.352 318.275L264.23 430.191C262.783 437.19 272.094 441.007 275.978 435.005L278.571 430.997L421.904 144.95C424.304 140.161 420.168 134.701 414.904 135.715L364.496 145.444C359.758 146.358 355.728 141.946 357.064 137.311L389.966 23.2549C391.305 18.6102 387.26 14.1952 382.518 15.1249Z" stroke="white" stroke-width="30" stroke-linejoin="bevel"/>
</svg>
