<svg width="574" height="599" viewBox="0 0 574 599" fill="none" xmlns="http://www.w3.org/2000/svg">
<path d="M179.405 107.195C164.605 107.195 152.606 119.193 152.606 133.994C152.606 148.794 164.605 160.792 179.405 160.792H292.882L192.908 217.921C182.358 223.949 177.184 236.322 180.303 248.068C183.422 259.811 194.052 267.987 206.204 267.987H334.838C337.799 267.987 340.197 270.385 340.197 273.347V335.061C340.197 336.484 339.632 337.848 338.627 338.853L290.389 387.091C288.296 389.184 284.904 389.184 282.811 387.091L225.153 329.434C214.688 318.969 197.72 318.969 187.254 329.434C176.789 339.899 176.789 356.868 187.254 367.332L267.651 447.729C278.115 458.193 295.084 458.193 305.549 447.729L385.945 367.332C390.97 362.308 393.795 355.49 393.795 348.383V241.188C393.795 226.388 381.797 214.39 366.996 214.39H307.117L407.089 157.261C417.64 151.233 422.815 138.86 419.696 127.115C416.576 115.371 405.945 107.195 393.795 107.195H179.405Z" fill="white"/>
<path fill-rule="evenodd" clip-rule="evenodd" d="M80.4112 0C31.4864 0 -6.0958 43.3324 0.823091 91.7657L42.8708 386.099C45.5906 405.137 55.0446 422.57 69.5178 435.235L233.659 578.857C263.971 605.38 309.229 605.38 339.541 578.857L503.683 435.235C518.154 422.57 527.609 405.137 530.329 386.099L572.376 91.7657C579.295 43.3324 541.713 0 492.789 0H80.4112ZM53.8818 84.1859C51.5755 68.0416 64.1028 53.5974 80.4112 53.5974H492.789C509.096 53.5974 521.624 68.0416 519.317 84.1859L477.27 378.518C476.364 384.864 473.213 390.677 468.389 394.897L304.247 538.52C294.144 547.361 279.056 547.361 268.953 538.52L104.812 394.897C99.9874 390.677 96.8361 384.864 95.9295 378.518L53.8818 84.1859Z" fill="white"/>
</svg>
