<svg width="575" height="575" viewBox="0 0 575 575" fill="none" xmlns="http://www.w3.org/2000/svg">
<path d="M102.718 2.12714C110.185 5.71564 114.933 13.2662 114.933 21.5503C114.933 45.3943 123.901 59.1225 135.136 75.841L135.953 77.0556C145.508 91.251 158.033 109.859 158.033 136.484C158.033 163.651 144.322 187.617 123.443 201.838C128.936 206.443 133.803 212.123 137.985 218.891C151.655 241.015 158.033 274.82 158.033 323.391C158.033 372.585 151.425 431.66 140.661 478.823C135.309 502.275 128.68 523.909 120.758 540.169C116.829 548.232 112.045 556.107 106.088 562.268C100.197 568.356 91.0946 574.807 79.0166 574.807C66.9386 574.807 57.8361 568.356 51.9449 562.268C45.9882 556.107 41.2041 548.232 37.2752 540.169C29.3531 523.909 22.724 502.275 17.3719 478.823C6.6078 431.66 0 372.585 0 323.391C0 274.82 6.37851 241.015 20.0487 218.891C24.2302 212.123 29.0974 206.443 34.5906 201.838C13.711 187.617 0 163.651 0 136.484C0 125.904 0.00976889 107.718 11.0166 84.2369C21.7882 61.2571 42.2569 34.8538 79.9211 4.72262C86.3898 -0.452534 95.2521 -1.46136 102.718 2.12714ZM43.1 136.447V136.484C43.1 156.32 59.1803 172.4 79.0166 172.4C98.8529 172.4 114.933 156.32 114.933 136.484C114.933 123.868 109.623 115.147 99.3638 99.8813L99.0127 99.3586C92.4365 89.5752 84.6693 78.0201 79.1261 63.1432C63.5158 79.0163 54.895 92.1765 50.0416 102.53C43.1 117.339 43.1 127.878 43.1 136.447ZM56.7147 241.547C49.5856 253.083 43.1 276.745 43.1 323.391C43.1 369.41 49.3563 425.267 59.3912 469.232C64.4385 491.348 70.1923 509.327 76.0209 521.291C77.0938 523.492 78.0989 525.343 79.0166 526.88C79.9343 525.343 80.9394 523.492 82.0123 521.291C87.8409 509.327 93.5947 491.348 98.642 469.232C108.677 425.267 114.933 369.41 114.933 323.391C114.933 276.745 108.448 253.083 101.319 241.547C98.0745 236.294 94.8541 233.809 91.9768 232.412C88.8784 230.91 84.7828 230.007 79.0166 230.007C73.2504 230.007 69.1548 230.91 66.0564 232.412C63.1791 233.809 59.9587 236.294 56.7147 241.547Z" fill="white"/>
<path d="M229.865 371.148C214.397 368.554 199.628 363.899 185.849 357.477C186.452 345.803 186.765 334.37 186.765 323.391C186.765 318.339 186.7 313.383 186.565 308.527C199.527 317.236 214.152 323.664 229.865 327.229V244.233C229.865 220.43 249.161 201.133 272.964 201.133H387.897C387.897 129.723 330.008 71.8333 258.597 71.8333C229.049 71.8333 201.814 81.7457 180.039 98.4266C174.306 82.5537 166.112 70.3952 160.411 61.9358L159.254 60.217C187.334 40.3844 221.606 28.7333 258.597 28.7333C353.811 28.7333 430.997 105.919 430.997 201.133H531.563C555.369 201.133 574.663 220.43 574.663 244.233V502.833C574.663 526.636 555.369 545.933 531.563 545.933H272.964C249.161 545.933 229.865 526.636 229.865 502.833V371.148ZM272.964 372.944V502.833H531.563V244.233H425.566C407.582 314.113 346.886 366.844 272.964 372.944ZM380.541 244.233H272.964V329.643C322.934 324.12 364.321 290.12 380.541 244.233Z" fill="white"/>
</svg>
