<svg width="530" height="553" viewBox="0 0 530 553" fill="none" xmlns="http://www.w3.org/2000/svg">
<path d="M165.621 98.9594C158.003 98.9594 150.81 102.469 146.121 108.474C141.433 114.479 139.773 122.309 141.62 129.7L166.36 228.658C169.113 239.672 179.009 247.398 190.361 247.398H309.113C311.846 247.398 314.061 249.613 314.061 252.346V309.32C314.061 310.633 313.539 311.893 312.611 312.82L268.079 357.352C266.147 359.284 263.015 359.284 261.083 357.352L207.855 304.124C198.194 294.463 182.529 294.463 172.868 304.124C163.206 313.785 163.206 329.451 172.868 339.111L247.087 413.331C256.748 422.992 272.414 422.992 282.074 413.331L356.294 339.111C360.933 334.473 363.54 328.179 363.54 321.618V222.659C363.54 208.995 352.464 197.919 338.8 197.919H213.541C211.27 197.919 209.291 196.373 208.741 194.171L198.845 154.587C198.064 151.464 200.426 148.439 203.645 148.439H363.54C377.204 148.439 388.28 137.363 388.28 123.699C388.28 110.036 377.204 98.9594 363.54 98.9594H165.621Z" fill="white"/>
<path fill-rule="evenodd" clip-rule="evenodd" d="M74.2333 0C29.0672 0 -5.62767 40.0033 0.75991 84.7156L39.577 356.437C42.0878 374.012 50.8155 390.105 64.1768 401.797L215.708 534.385C243.691 558.87 285.472 558.87 313.455 534.385L464.986 401.797C478.346 390.105 487.074 374.012 489.585 356.437L528.402 84.7156C534.79 40.0033 500.095 0 454.93 0H74.2333ZM49.7421 77.7182C47.613 62.8142 59.1778 49.4797 74.2333 49.4797H454.93C469.984 49.4797 481.55 62.8142 479.42 77.7182L440.603 349.438C439.767 355.296 436.857 360.662 432.404 364.559L280.872 497.147C271.546 505.309 257.617 505.309 248.29 497.147L96.7594 364.559C92.3055 360.662 89.3963 355.296 88.5594 349.438L49.7421 77.7182Z" fill="white"/>
</svg>
