<svg width="516" height="539" viewBox="0 0 516 539" fill="none" xmlns="http://www.w3.org/2000/svg">
<path d="M281.993 120.566C281.993 107.249 292.789 96.4529 306.106 96.4529H378.446C391.764 96.4529 402.559 107.249 402.559 120.566C402.559 133.883 391.764 144.679 378.446 144.679H335.042C332.378 144.679 330.22 146.838 330.22 149.502V188.083C330.22 190.747 332.378 192.906 335.042 192.906H378.446C391.764 192.906 402.559 203.702 402.559 217.019V289.359C402.559 295.753 400.018 301.888 395.497 306.409L323.157 378.749C313.741 388.165 298.472 388.165 289.056 378.749C279.64 369.333 279.64 354.064 289.056 344.648L352.92 280.784C353.824 279.88 354.333 278.652 354.333 277.372V245.955C354.333 243.29 352.175 241.132 349.51 241.132H306.106C292.789 241.132 281.993 230.337 281.993 217.019V120.566Z" fill="white"/>
<path d="M233.767 120.566C233.767 107.249 222.971 96.4529 209.654 96.4529C196.336 96.4529 185.54 107.249 185.54 120.566V291.84C185.54 296.137 180.346 298.29 177.308 295.252L162.84 280.784C161.935 279.88 161.427 278.652 161.427 277.372V265.245C161.427 251.928 150.631 241.132 137.314 241.132C123.996 241.132 113.201 251.928 113.201 265.245V289.359C113.201 295.754 115.741 301.888 120.263 306.409L192.603 378.749C199.499 385.645 209.871 387.709 218.882 383.977C227.893 380.244 233.767 371.452 233.767 361.698V120.566Z" fill="white"/>
<path fill-rule="evenodd" clip-rule="evenodd" d="M0.740663 82.57C-5.48513 38.9901 28.331 0 72.3533 0H443.407C487.428 0 521.245 38.9901 515.019 82.57L477.185 347.409C474.738 364.539 466.23 380.225 453.209 391.62L305.516 520.85C278.241 544.715 237.519 544.715 210.244 520.85L62.5513 391.62C49.5285 380.225 41.0218 364.539 38.5748 347.409L0.740663 82.57ZM72.3533 48.2264C57.6792 48.2264 46.4073 61.2232 48.4824 75.7498L86.3166 340.587C87.1323 346.297 89.9678 351.527 94.3087 355.325L242.001 484.555C251.092 492.51 264.668 492.51 273.759 484.555L421.452 355.325C425.793 351.527 428.628 346.297 429.443 340.587L467.277 75.7498C469.353 61.2232 458.08 48.2264 443.407 48.2264H72.3533Z" fill="white"/>
</svg>
