<svg width="515" height="461" viewBox="0 0 515 461" fill="none" xmlns="http://www.w3.org/2000/svg">
<path d="M257.62 185.104C266.463 185.105 275.108 187.721 282.467 192.622C289.825 197.524 295.569 204.492 298.975 212.649C302.38 220.807 303.295 229.789 301.604 238.466C299.914 247.142 295.693 255.125 289.474 261.408C283.254 267.692 275.314 271.996 266.653 273.778C257.991 275.56 248.996 274.741 240.8 271.424C232.603 268.107 225.572 262.44 220.59 255.136C215.609 247.833 212.901 239.219 212.806 230.38C212.774 224.466 213.909 218.603 216.144 213.127C218.379 207.651 221.671 202.669 225.832 198.464C229.994 194.26 234.943 190.916 240.397 188.624C245.851 186.332 251.703 185.136 257.62 185.104ZM146.664 422.024C161.761 431.127 194.593 417.233 232.936 381.299C220.121 366.742 208.043 351.551 196.75 335.784C177.42 333.62 158.221 330.422 139.235 326.202C127.013 377.467 131.566 412.681 146.664 422.024ZM163.678 284.52L156.729 272.302C154.02 279.031 151.699 285.909 149.779 292.904C156.249 294.341 163.439 295.539 170.868 296.737L163.678 284.52ZM320.407 266.313L339.819 230.38L320.407 194.447C313.218 181.751 305.549 170.492 298.599 159.233C285.658 158.514 271.999 158.514 257.62 158.514C243.241 158.514 229.581 158.514 216.64 158.514C209.691 169.773 202.022 181.032 194.832 193.728L175.421 230.38L194.832 266.313C202.022 279.01 209.691 290.269 216.64 301.528C229.581 301.528 243.241 301.528 257.62 301.528C271.999 301.528 285.658 301.528 298.599 301.528C305.549 290.269 313.218 279.01 320.407 266.313ZM257.62 105.333C253.067 110.603 248.274 116.113 243.481 122.581H271.759C266.966 116.113 262.173 110.603 257.62 105.333ZM257.62 355.428C262.173 350.157 266.966 344.648 271.759 338.18H243.481C248.274 344.648 253.067 350.157 257.62 355.428ZM368.336 38.7367C353.478 29.6337 320.407 43.5278 282.303 79.461C295.119 94.0187 307.196 109.21 318.49 124.976C337.802 126.824 357.001 129.703 376.005 133.6C388.227 82.3356 383.674 47.1211 368.336 37.7785M351.561 175.283L358.511 187.5C361.22 180.771 363.54 173.893 365.461 166.898C358.99 165.461 351.801 164.263 344.372 163.065L351.561 175.283ZM386.31 7.59466C421.538 27.7172 425.372 80.6587 410.275 142.464C471.145 160.43 515 190.375 515 230.62C515 270.865 471.145 300.809 410.275 318.776C425.133 380.581 421.298 433.522 386.31 453.645C351.322 473.767 303.632 450.77 257.62 406.932C211.608 450.77 163.918 473.767 128.69 453.645C93.4621 433.522 89.8674 381.779 104.725 318.776C43.8553 300.809 0 270.865 0 230.62C0 190.375 43.8553 160.191 104.725 142.224C89.8674 80.4192 93.7017 27.4777 128.69 7.35511C163.678 -12.7675 211.608 10.2298 257.62 54.0682C303.632 10.2298 351.322 -12.7675 386.31 7.35511M379.36 230.38C387.683 248.015 395.043 266.088 401.408 284.52C451.733 269.428 480.012 247.868 480.012 230.38C480.012 212.893 451.014 191.333 401.408 176.241C395.043 194.673 387.683 212.746 379.36 230.38ZM135.879 230.38C127.557 212.746 120.197 194.673 113.832 176.241C63.5063 191.333 35.228 212.893 35.228 230.38C35.228 247.868 64.2252 269.428 113.832 284.52C120.197 266.088 127.557 248.015 135.879 230.38ZM351.561 284.52L344.372 296.737C351.801 296.737 358.99 294.341 365.461 292.904C363.54 285.909 361.22 279.031 358.511 272.302L351.561 284.52ZM281.584 381.299C319.688 417.233 353.478 431.127 367.617 422.024C381.757 412.921 387.508 378.425 375.286 326.202C356.282 330.1 337.083 332.979 317.771 334.826C306.504 350.919 294.426 366.431 281.584 381.299ZM163.678 176.241L170.868 164.024C163.439 164.024 156.249 166.419 149.779 167.857C151.699 174.851 154.02 181.73 156.729 188.458L163.678 176.241ZM233.655 79.461C194.832 43.5278 161.761 29.6337 146.664 38.7367C131.566 47.8398 127.013 82.3356 139.235 134.558C158.239 130.661 177.438 127.782 196.75 125.935C208.25 109.824 220.568 94.3128 233.655 79.461Z" fill="white"/>
</svg>
